Coordinates
version=1
nRows=16
nColumns=40
inDegrees=yes

Units are S.I. units (second, meters, Newtons, ...)
Angles are in degrees.

endheader
time	pelvis_tilt	pelvis_list	pelvis_rotation	pelvis_tx	pelvis_ty	pelvis_tz	hip_flexion_r	hip_adduction_r	hip_rotation_r	knee_angle_r	knee_angle_r_beta	ankle_angle_r	subtalar_angle_r	mtp_angle_r	hip_flexion_l	hip_adduction_l	hip_rotation_l	knee_angle_l	knee_angle_l_beta	ankle_angle_l	subtalar_angle_l	mtp_angle_l	lumbar_extension	lumbar_bending	lumbar_rotation	arm_flex_r	arm_add_r	arm_rot_r	elbow_flex_r	pro_sup_r	wrist_flex_r	wrist_dev_r	arm_flex_l	arm_add_l	arm_rot_l	elbow_flex_l	pro_sup_l	wrist_flex_l	wrist_dev_l
     47.61628571	     -6.30938719	     -5.12294431	     -2.10459322	      0.90115047	      0.93181894	      0.45276599	     39.73132767	     -2.85424340	     -4.44561291	     67.70140209	     67.70140209	      0.03235065	    -12.09452504	     -1.85424199	     13.95899598	     -6.26590575	     -7.46805950	     20.29241431	     20.29241431	     14.74676877	     -9.74812340	      1.58020930	    -12.13953431	      5.82811520	      3.03683725	      3.84593546	    -13.82990807	     -5.62140454	     50.01839597	     46.29564414	      0.00000000	      0.00000000	     18.49530908	    -21.10859274	      4.28409075	     73.98540689	     46.80020383	      0.00000000	      0.00000000
     47.62757143	     -6.32181178	     -5.20142244	     -2.25011644	      0.90043507	      0.93174040	      0.45272657	     40.33766385	     -2.66170877	     -4.79843687	     65.49084358	     65.49084358	      0.17793197	    -12.07156313	     -1.56642384	     13.22241730	     -6.30067011	     -7.52016103	     19.90137949	     19.90137949	     14.98847680	     -9.77933027	      1.30131588	    -12.20234153	      5.94936594	      2.98191830	      3.39674571	    -13.76148723	     -4.99955009	     45.13095275	     46.38832698	      0.00000000	      0.00000000	     19.63583860	    -21.64167242	      3.76210754	     76.68911390	     46.95113868	      0.00000000	      0.00000000
     47.63885714	     -6.32273146	     -5.29718458	     -2.38467716	      0.89985998	      0.93159685	      0.45275357	     40.71070685	     -2.45568104	     -5.22448391	     62.85781275	     62.85781275	      0.32190731	    -11.97900235	     -1.26403926	     12.47608857	     -6.35801184	     -7.56265519	     19.53625387	     19.53625387	     15.29506580	     -9.76480784	      1.20551776	    -12.33745158	      6.13000357	      3.51024245	      1.70857642	    -13.98947024	     -4.71607681	     43.01944948	     46.43396097	      0.00000000	      0.00000000	     21.30297221	    -21.53316412	      3.38467359	     78.70004755	     47.03218404	      0.00000000	      0.00000000
     47.65014286	     -6.38548186	     -5.28479144	     -2.53993837	      0.89944865	      0.93117126	      0.45294154	     40.97868246	     -2.31368660	     -5.60633249	     59.88525933	     59.88525933	      0.42193952	    -11.85850648	     -1.25609500	     11.79097038	     -6.33506109	     -7.77213703	     19.17744829	     19.17744829	     15.47640621	     -9.66641910	      0.62328528	    -12.26822326	      6.08559882	      3.08341879	      2.17509715	    -13.62892063	     -3.88451469	     36.67922555	     46.58733423	      0.00000000	      0.00000000	     22.02771707	    -22.60264786	      3.28715947	     81.79407428	     47.15512660	      0.00000000	      0.00000000
     47.66142857	     -6.44814066	     -5.27421239	     -2.68904366	      0.89917715	      0.93068333	      0.45317248	     41.00560566	     -2.15925512	     -6.05205499	     56.49315231	     56.49315231	      0.48134338	    -11.60637257	     -1.44719899	     11.08175935	     -6.30924253	     -7.97089009	     18.78830971	     18.78830971	     15.65920017	     -9.56793350	      0.17510609	    -12.24498337	      6.10102053	      2.87832887	      1.69393583	    -13.49227982	     -3.11601431	     32.91155007	     46.63060003	      0.00000000	      0.00000000	     22.78180956	    -22.91384557	      2.14200217	     84.55484934	     47.35112794	      0.00000000	      0.00000000
     47.67271429	     -6.53203610	     -5.28620479	     -2.79626779	      0.89914364	      0.93001404	      0.45344513	     40.83829733	     -1.96917899	     -6.56219281	     52.78843000	     52.78843000	      0.78351292	    -11.02931769	     -1.15691144	     10.38692453	     -6.29471113	     -8.05898470	     18.42238520	     18.42238520	     16.03866403	     -9.44578238	      0.00738378	    -12.15936048	      6.19047184	      3.13901033	      0.12199878	    -13.53442343	     -2.90955131	     31.68037150	     46.64871743	      0.00000000	      0.00000000	     24.14141105	    -22.92417586	      1.79922498	     86.21864717	     47.41965154	      0.00000000	      0.00000000
     47.68400000	     -6.60600583	     -5.17291529	     -2.93524928	      0.89931971	      0.92917640	      0.45388301	     40.46424565	     -1.83398606	     -7.02141220	     48.78839950	     48.78839950	      1.09957407	    -10.27828874	     -1.17524219	      9.64127598	     -6.19494227	     -8.43835281	     18.01339150	     18.01339150	     16.35993471	     -8.97833816	     -0.43019721	    -12.11903251	      6.05312837	      3.51194473	     -1.19744558	    -13.46473521	     -2.46689656	     29.67296027	     46.67904271	      0.00000000	      0.00000000	     25.35078869	    -22.99621459	      1.67513093	     88.73584291	     47.49956694	      0.00000000	      0.00000000
     47.69528571	     -6.67532842	     -5.09788559	     -3.01900637	      0.89976269	      0.92824194	      0.45438565	     39.82288490	     -1.65217795	     -7.60268942	     44.46435380	     44.46435380	      1.43375282	     -9.23290151	     -1.14968503	      8.87682704	     -6.13788866	     -8.78994501	     17.60528328	     17.60528328	     16.69778156	     -8.49262978	     -0.90795341	    -12.00383346	      5.97961727	      3.55588375	     -2.40864607	    -13.35215174	     -2.08210298	     28.10238171	     46.69752869	      0.00000000	      0.00000000	     26.30908079	    -23.21812304	      1.44022725	     90.87392569	     47.57685406	      0.00000000	      0.00000000
     47.70657143	     -6.73171776	     -5.00171787	     -3.05341193	      0.90046348	      0.92716267	      0.45493780	     38.94097234	     -1.45497550	     -8.24466195	     39.90894717	     39.90894717	      1.81642498	     -7.92092455	     -0.90245994	      8.07877547	     -6.05572809	     -9.12293429	     17.17734568	     17.17734568	     17.04695917	     -7.96344700	     -1.36180760	    -11.84378443	      5.89357935	      3.53584367	     -3.70336248	    -13.23933944	     -1.79536368	     27.01312104	     46.70417712	      0.00000000	      0.00000000	     27.16021998	    -23.40382748	      1.18943845	     92.76784717	     47.64607205	      0.00000000	      0.00000000
     47.71785714	     -6.77580848	     -4.79624803	     -3.04714775	      0.90148905	      0.92588036	      0.45554780	     37.90726511	     -1.34528099	     -8.91636675	     35.32968863	     35.32968863	      2.19077243	     -6.27223916	     -0.50659173	      7.20733249	     -5.87221668	     -9.60160087	     16.66691588	     16.66691588	     17.39627004	     -7.11908643	     -2.00122850	    -11.66977184	      5.66439663	      3.44880284	     -5.00577956	    -13.08777226	     -1.45806067	     26.15335884	     46.69416928	      0.00000000	      0.00000000	     27.87837224	    -23.66887987	      0.93344033	     94.96306496	     47.72571353	      0.00000000	      0.00000000
     47.72914286	     -6.77437313	     -4.61570565	     -2.98915859	      0.90279859	      0.92448984	      0.45623057	     36.65511086	     -1.15976515	     -9.60910500	     30.74147636	     30.74147636	      2.54330952	     -4.52201379	      0.31211906	      6.26677144	     -5.69777840	     -9.96346521	     16.13374641	     16.13374641	     17.78967271	     -6.41697619	     -2.49163437	    -11.47319428	      5.48513980	      3.29790895	     -6.40873251	    -12.95781793	     -1.25224434	     25.70357453	     46.67742076	      0.00000000	      0.00000000	     28.53638655	    -23.86903646	      0.72598721	     96.66989704	     47.78769233	      0.00000000	      0.00000000
     47.74042857	     -6.67697593	     -4.31044254	     -2.89182792	      0.90449879	      0.92297491	      0.45693820	     35.32898325	     -1.14047244	    -10.39779925	     26.58911836	     26.58911836	      3.00019915	     -2.37536997	      1.63315555	      5.13604214	     -5.39820719	    -10.50586189	     15.48404225	     15.48404225	     18.16707811	     -5.32116102	     -3.14551539	    -11.37641373	      5.13066726	      3.14133207	     -7.94144959	    -12.85424577	     -1.02461009	     25.71416521	     46.63342384	      0.00000000	      0.00000000	     29.06941739	    -24.10703400	      0.58073619	     98.75404046	     47.85893717	      0.00000000	      0.00000000
     47.75171429	     -6.78714484	     -3.93647118	     -2.74342672	      0.90619095	      0.92093918	      0.45779435	     34.29008298	     -1.08650421	    -10.83580817	     22.86248476	     22.86248476	      3.04999185	     -1.01762543	      2.73382857	      4.34411387	     -5.01039517	    -10.66468511	     15.01222154	     15.01222154	     18.59618825	     -4.80071677	     -3.45450187	    -10.93664177	      4.71213838	      2.86260296	     -9.31280810	    -12.64590904	     -0.95334572	     25.56837315	     46.61669483	      0.00000000	      0.00000000	     29.69630300	    -24.33088192	      0.43308372	     99.79870751	     47.89800534	      0.00000000	      0.00000000
     47.76300000	     -6.48428078	     -3.65533349	     -2.55661725	      0.90854136	      0.91947352	      0.45859113	     32.92955422	     -1.18815883	    -12.00489870	     20.01585641	     20.01585641	      3.82758139	      1.45935730	      5.46575007	      2.84811325	     -4.74378096	    -11.34955182	     14.16638945	     14.16638945	     19.01406230	     -3.25559483	     -4.09296712	    -11.03636652	      4.42689015	      2.72535545	    -11.27265996	    -12.76423929	     -0.80722474	     27.05910492	     46.50107567	      0.00000000	      0.00000000	     29.84338300	    -24.57351977	      0.56655104	    102.19727040	     47.97020224	      0.00000000	      0.00000000
     47.77428571	     -6.35472574	     -3.41158075	     -2.36633458	      0.91073354	      0.91768672	      0.45967647	     31.86408630	     -1.10286413	    -12.46500468	     17.68355884	     17.68355884	      3.71403210	      2.43000076	      6.54119171	      1.71084648	     -4.48845182	    -11.41230289	     13.60440006	     13.60440006	     19.48271866	     -2.69856139	     -4.22793920	    -10.85916305	      4.15781370	      2.57861813	    -12.70565347	    -12.68264760	     -0.73171479	     27.21230859	     46.46894984	      0.00000000	      0.00000000	     30.24656510	    -24.59732638	      0.54692671	    103.18117978	     48.00073154	      0.00000000	      0.00000000
     47.78557143	     -6.20453757	     -3.14888529	     -2.17863925	      0.91302052	      0.91592740	      0.46081558	     31.11693685	     -1.20449566	    -13.12028852	     16.48392845	     16.48392845	      3.84939206	      3.49542320	      7.91407511	      0.56243760	     -4.26653205	    -11.74936225	     13.10133766	     13.10133766	     20.08749167	     -1.65313639	     -4.06554964	    -10.76034503	      3.86764073	      2.49140835	    -14.74254463	    -12.74840089	     -0.60867898	     29.31315447	     46.32650958	      0.00000000	      0.00000000	     30.39795926	    -24.80011347	      0.77228425	    104.73995453	     48.06341657	      0.00000000	      0.00000000
